<?xml version="1.0" standalone="no"?><!DOCTYPE svg PUBLIC "-//W3C//DTD SVG 1.1//EN" "http://www.w3.org/Graphics/SVG/1.1/DTD/svg11.dtd"><svg t="1599955512499" class="icon" viewBox="0 0 1069 1024" version="1.1" xmlns="http://www.w3.org/2000/svg" p-id="4518" xmlns:xlink="http://www.w3.org/1999/xlink" width="208.7890625" height="200"><defs><style type="text/css"></style></defs><path d="M798.921036 593.913122h256.881014a493.434399 493.434399 0 0 0 2.770581-54.643681 476.042982 476.042982 0 0 0-64.340714-239.655231c42.311586-112.404266 40.805835-207.80861-15.840494-264.861491-53.875749-53.604713-198.382612-44.901476-361.726413 27.404657a489.338758 489.338758 0 0 0-36.589734-1.385291c-224.206231 0-412.304569 154.294241-464.328244 362.208254 70.3336-90.043873 144.326174-155.333209 243.178686-202.869749-8.974272 8.432202-61.419558 60.56128-70.258313 69.400035C27.9919 550.110843-54.207014 890.500774 34.270879 978.948551c67.231754 67.201639 189.062018 55.863339 329.006457-12.678418a476.163442 476.163442 0 0 0 216.79794 51.81287c210.142523 0 388.242678-135.276614 452.779139-323.645986h-258.838491c-35.610996 65.710947-105.251951 110.416675-185.207296 110.416675-79.955345 0-149.581243-44.720786-185.207297-110.416675a211.437468 211.437468 0 0 1-24.920168-99.725848v-0.798047h420.31516-0.075287z m-419.938723-126.257169c5.962771-105.688619 93.808249-189.980525 201.062848-189.980526 107.239542 0 195.130192 84.291906 201.04779 189.980526H378.982313z m597.030025-379.750246c36.499389 36.875827 35.550766 104.694824 4.366676 189.34811a480.093451 480.093451 0 0 0-222.851056-182.421658c98.039407-42.025493 177.783947-47.596769 218.454265-6.926452h0.030115zM101.713438 962.174492c-46.557802-46.557802-32.524208-144.296059 27.434772-262.060796a480.274141 480.274141 0 0 0 203.848486 249.352263c-103.836546 47.129987-188.836155 55.155636-231.313373 12.708533h0.030115z" fill="#20BBEE" p-id="4519"></path></svg>